<?xml version="1.0" encoding="UTF-8" standalone="no"?>
<svg
   xmlns:dc="http://purl.org/dc/elements/1.1/"
   xmlns:cc="http://creativecommons.org/ns#"
   xmlns:rdf="http://www.w3.org/1999/02/22-rdf-syntax-ns#"
   xmlns:svg="http://www.w3.org/2000/svg"
   xmlns="http://www.w3.org/2000/svg"
   xmlns:sodipodi="http://sodipodi.sourceforge.net/DTD/sodipodi-0.dtd"
   xmlns:inkscape="http://www.inkscape.org/namespaces/inkscape"
   enable-background="new 0 0 64 64"
   viewBox="0 0 64 64"
   version="1.1"
   id="svg8"
   sodipodi:docname="khoka.svg"
   inkscape:export-filename="/media/Particion_E/1_Proyectos/Amenity/Cromatogramas/Copia/Aplicacion/khoka.png"
   inkscape:export-xdpi="96"
   inkscape:export-ydpi="96"
   inkscape:version="0.92.3 (2405546, 2018-03-11)">
  <metadata
     id="metadata14">
    <rdf:RDF>
      <cc:Work
         rdf:about="">
        <dc:format>image/svg+xml</dc:format>
        <dc:type
           rdf:resource="http://purl.org/dc/dcmitype/StillImage" />
        <dc:title></dc:title>
      </cc:Work>
    </rdf:RDF>
  </metadata>
  <defs
     id="defs12" />
  <sodipodi:namedview
     pagecolor="#ffffff"
     bordercolor="#666666"
     borderopacity="1"
     objecttolerance="10"
     gridtolerance="10"
     guidetolerance="10"
     inkscape:pageopacity="0"
     inkscape:pageshadow="2"
     inkscape:window-width="1325"
     inkscape:window-height="723"
     id="namedview10"
     showgrid="false"
     inkscape:zoom="0.921875"
     inkscape:cx="39.262696"
     inkscape:cy="-69.995621"
     inkscape:window-x="41"
     inkscape:window-y="20"
     inkscape:window-maximized="1"
     inkscape:current-layer="g817" />
  <g
     id="g848"
     transform="matrix(7.1093973,0,0,7.1093973,-88.605425,-138.26208)"
     inkscape:export-filename="/media/Particion_E/1_Proyectos/Amenity/Cromatogramas/Copia/Aplicacion/khoka.png"
     inkscape:export-xdpi="96"
     inkscape:export-ydpi="96"
     style="fill:#ff2525;fill-opacity:1">
    <g
       transform="matrix(0.1274163,0,0,0.1274163,9.6727427,17.57237)"
       id="g817"
       style="fill:#ff2525;fill-opacity:1">
      <path
         inkscape:connector-curvature="0"
         d="m 8.5188603,50.398743 c -0.3,-1.1 -0.4,-2.2 -0.5,-3.3 0.9,-0.5 2.0999997,-0.4 2.8999997,0.3 0.8,0.7 1.9,1.1 2.9,1.1 1.1,0 2.1,-0.4 2.9,-1.1 0.9,-0.8 2.4,-0.8 3.3,0 1.7,1.4 4.2,1.4 5.9,0 0.9,-0.8 2.4,-0.8 3.3,0 0.4,0.4 1.1,0.3 1.4,-0.1 0.4,-0.4 0.3,-1.1 -0.1,-1.4 -1.7,-1.4 -4.2,-1.4 -5.9,0 -0.9,0.8 -2.4,0.8 -3.3,0 -1.7,-1.4 -4.2,-1.4 -5.9,0 -0.9,0.8 -2.4,0.8 -3.3,0 -1.2,-1 -2.6999997,-1.3 -4.0999997,-0.9 0.7,-6.1 5.0999997,-11.3 11.0999997,-12.9 0.4,-0.1 0.7,-0.5 0.7,-1 v -6.5 c 0,-0.6 -0.4,-1 -1,-1 h -2 c -0.6,0 -1,0.4 -1,1 0,0.6 0.4,1 1,1 h 1 v 4.7 c -7.1,2.2 -11.9999997,8.8 -11.9999997,16.3 0,1.4 0.2,2.9 0.5,4.3 0.1,0.5 0.5,0.9 1.2,0.7 0.8,-0.2 1.1,-0.7 1,-1.2 z m 23.0999997,-18.5 c -1.1,-0.7 -2.3,-1.2 -3.6,-1.6 v -4.7 h 1 c 0.6,0 1,-0.4 1,-1 0,-0.6 -0.4,-1 -1,-1 h -2 c -0.6,0 -1,0.4 -1,1 v 6.5 c 0,0.5 0.3,0.9 0.7,1 1.3,0.3 2.6,0.9 3.8,1.6 0.2,0.1 0.9,0.3 1.4,-0.4 0.3,-0.5 0.1,-1.1 -0.3,-1.4 z m 21.4,29.7 h -4 c -0.6,0 -1,0.4 -1,1 0,0.6 0.4,1 1,1 h 4 c 0.6,0 1,-0.4 1,-1 0,-0.6 -0.4,-1 -1,-1 z"
         id="path2"
         style="fill:#ffffff;fill-opacity:1" />
      <path
         inkscape:connector-curvature="0"
         d="m 45.01886,61.598743 h -14 c 5.4,-2.9 9,-8.5 9,-15 0,-4.6 -1.8,-8.8 -5,-12 -0.4,-0.4 -1,-0.4 -1.4,0 -0.4,0.4 -0.4,1 0,1.4 2.4,2.4 3.9,5.5 4.3,8.9 -1.4,-0.3 -2.9,0 -3.9,1 -0.2,0.2 -0.5,0.4 -0.9,0.5 -0.5,0.2 -0.8,0.7 -0.7,1.3 0.3,0.9 1.2,0.7 1.3,0.7 0.6,-0.2 1.1,-0.5 1.5,-0.8 0.7,-0.6 1.8,-0.8 2.7,-0.4 -0.1,7.9 -6.8,14.4 -14.9,14.4 -5.3,0 -10.3,-2.9 -13,-7.5 -0.2999997,-0.5 -0.8999997,-0.6 -1.3999997,-0.4 -0.5,0.3 -0.6,0.9 -0.4,1.4 1.6,2.8 3.9999997,5 6.7999997,6.5 h -4 c -0.6,0 -1,0.4 -1,1 0,0.6 0.4,1 1,1 h 34 c 0.6,0 1,-0.4 1,-1 0,-0.6 -0.4,-1 -1,-1 z m -37.9999997,0 h -14 c -0.6,0 -1,0.4 -1,1 0,0.6 0.4,1 1,1 h 14 c 0.6,0 1,-0.4 1,-1 0,-0.6 -0.4,-1 -1,-1 z"
         id="path4"
         style="fill:#ffffff;fill-opacity:1" />
      <path
         inkscape:connector-curvature="0"
         d="m 10.91886,13.198743 c 0.4,0.4 1,0.4 1.4,0 0.4,-0.4 0.4,-1 0,-1.4 -1.9,-1.8000004 -2.9999997,-5.7000004 -3.5999997,-7.8000004 2.3999997,0.6 6.1999997,1.9 7.8999997,3.6 1.3,1.3 1.5,3.0000004 1.4,4.3000004 l -4.2,-4.3000004 c -0.4,-0.4 -1,-0.4 -1.4,0 -0.4,0.4 -0.4,1 0,1.4 l 4.2,4.2000004 c -0.4,0 -0.9,0 -1.4,-0.1 -0.5,-0.1 -1.1,0.3 -1.1,0.8 -0.1,0.5 0.3,1.1 0.8,1.1 0.5,0.1 0.9,0.1 1.3,0.1 0.9,0 1.7,-0.1 2.2,-0.2 l 3.6,3.7 v 25 c 0,0.6 0.4,1 1,1 0.6,0 1,-0.4 1,-1 v -20.6 l 3.6,-3.6 c 0.5,0.1 1.3,0.2 2.1,0.2 1.6,0 3.7,-0.4 5.3,-2 3,-3 4.4,-10.1000004 4.5,-10.4000004 0.1,-0.3 0,-0.7 -0.3,-0.9 -0.3,-0.2 -0.6,-0.3 -0.9,-0.3 -0.2,0 -3.8,0.7 -6.9,2.2 -0.5,0.2 -0.7,0.8 -0.5,1.3 0.2,0.5 0.8,0.7000004 1.3,0.5 1.7,-0.8 3.6,-1.4 4.9,-1.7 -0.6,2.4000004 -1.9,6.2000004 -3.6,7.9000004 -1.3,1.3 -2.9,1.5 -4.2,1.4 l 4.2,-4.2 c 0.4,-0.4 0.4,-1 0,-1.4 -0.4,-0.4 -1,-0.4 -1.4,0 l -4.3,4.3 c -0.1,-1.3 0.1,-3 1.4,-4.4 0.4,-0.4 0.4,-1 0,-1.4 -0.4,-0.4 -1,-0.4 -1.4,0 -2.6,2.7 -2.1,6.2 -1.8,7.6 l -2,2.1 V 9.6987426 c 0,-0.6 -0.4,-1 -1,-1 -0.6,0 -1,0.4 -1,1 v 6.1000004 l -2.2,-2.2 c 0.3,-1.4 0.8,-4.9000004 -1.8,-7.5000004 -3,-3 -10.0999997,-4.4 -10.3999997,-4.5 -0.3,-0.1 -0.7,0 -0.9,0.3 -0.2,0.2 -0.3,0.6 -0.3,0.9 0.1,0.3 1.4,7.4000004 4.4999997,10.4000004 z m 10.2,44.2 c -0.6,-0.1 -1.1,0.3 -1.1,0.8 -0.1,0.5 0.3,1.1 0.8,1.1 0,0 1.4,0.2 2.1,0.2 0.6,0 1,-0.4 1,-1 0,-0.6 -0.4,-1 -1,-1 -0.6,0 -1.8,-0.1 -1.8,-0.1 z m 5.6,-0.4 c -0.5,0.2 -0.8,0.8 -0.6,1.3 0.3,0.8 1.2,0.7 1.3,0.6 3,-1 5.4,-3 7,-5.8 0.3,-0.5 0.1,-1.1 -0.4,-1.4 -0.5,-0.3 -1.1,-0.1 -1.4,0.4 -1.4,2.3 -3.4,4 -5.9,4.9 z"
         id="path6"
         style="fill:#ffffff;fill-opacity:1" />
    </g>
    <text
       id="text821"
       y="23.17223"
       x="16.783222"
       style="font-style:normal;font-variant:normal;font-weight:normal;font-stretch:normal;font-size:2.75983167px;line-height:1.25;font-family:'Latin Modern Roman';-inkscape-font-specification:'Latin Modern Roman, ';letter-spacing:0px;word-spacing:0px;fill:#ffffff;fill-opacity:1;stroke:none;stroke-width:0.06899579;"
       xml:space="preserve"><tspan
         style="font-style:normal;font-variant:normal;font-weight:normal;font-stretch:normal;font-family:'DejaVu Sans';-inkscape-font-specification:'DejaVu Sans';fill:#ffffff;fill-opacity:1;stroke-width:0.06899579;"
         y="23.17223"
         x="16.783222"
         id="tspan819"
         sodipodi:role="line">Khoka Chromatography Data</tspan></text>
  </g>
</svg>
